<svg xmlns="http://www.w3.org/2000/svg" viewBox="0 0 494.52 501.9"><defs><style>.cls-1{fill:#fff;}.cls-2,.cls-3,.cls-4{fill:none;stroke:#fff;}.cls-2{stroke-linejoin:bevel;stroke-width:18px;stroke-dasharray:18 8;}.cls-3,.cls-4{stroke-miterlimit:10;}.cls-3{stroke-width:7px;stroke-dasharray:20 20;}.cls-4{stroke-width:4px;}</style></defs><g id="Cirkel_1" data-name="Cirkel 1"><path class="cls-1" d="M614.79,187.53a100.2,100.2,0,0,0-73.44,89.75,179.11,179.11,0,0,0-.1,22,102.78,102.78,0,0,0,2,15.44,100.17,100.17,0,0,0,197.19-6.5,125.91,125.91,0,0,0,1-17.25,148.82,148.82,0,0,0-.9-19.8,100.2,100.2,0,0,0-110.54-86.57,103.05,103.05,0,0,0-15.28,2.95c-.25.07,0,4.58,0,5a47.14,47.14,0,0,1,0,5A100.06,100.06,0,0,1,736.14,262,101.76,101.76,0,0,1,740,277.33q.65,3.8,1,7.64c.12,1.32.21,2.64.28,4,0,.57,0,1.15.07,1.72l0,.88c.07,2.75.07-7.61,0-4.86a100.16,100.16,0,0,1-199.9,6.22c-.11-1.21-.19-2.41-.26-3.62,0-.69-.06-1.38-.08-2.07,0-.18,0-.36,0-.53-.08-2.85-.08,7.94,0,4.51.06-2.49.23-5,.49-7.48a100.28,100.28,0,0,1,58.8-81.06,103.52,103.52,0,0,1,14.33-5.12c.25-.07.05-4.57.05-5A44.6,44.6,0,0,1,614.79,187.53Z" transform="translate(-397.73 -38.16)"/></g><g id="Cirkel_2" data-name="Cirkel 2"><path class="cls-2" d="M504.33,197.42a164.84,164.84,0,1,1,.61,184.27,163.08,163.08,0,0,1-16.91-32" transform="translate(-397.73 -38.16)"/></g><g id="Cirkel_3" data-name="Cirkel 3"><path class="cls-3" d="M832.47,364A205.37,205.37,0,0,1,641.29,494.38C527.92,494.38,436,402.48,436,289.11S527.92,83.83,641.29,83.83a204.39,204.39,0,0,1,118.9,37.92" transform="translate(-397.73 -38.16)"/></g><g id="Cirkel_4" data-name="Cirkel 4"><path class="cls-4" d="M399.67,228.92C426.58,120.51,524.55,40.16,641.29,40.16c137.49,0,249,111.46,249,249s-111.46,248.95-249,248.95a248.56,248.56,0,0,1-196.73-96.37" transform="translate(-397.73 -38.16)"/></g></svg>