<svg id="Fingerprint" xmlns="http://www.w3.org/2000/svg" viewBox="0 0 328.47 327.92"><defs><style>.cls-1{fill:none;stroke:#fff;stroke-linecap:round;stroke-miterlimit:10;stroke-width:4px;}</style></defs><path class="cls-1" d="M679.79,178.33" transform="translate(-431.74 -133.96)"/><path class="cls-1" d="M741.25,309.82A146.6,146.6,0,0,0,714.68,213" transform="translate(-431.74 -133.96)"/><path class="cls-1" d="M729,357.45" transform="translate(-431.74 -133.96)"/><path class="cls-1" d="M718.91,263.9" transform="translate(-431.74 -133.96)"/><path class="cls-1" d="M729,357.45" transform="translate(-431.74 -133.96)"/><path class="cls-1" d="M710.88,353q-.43,10.2-1.63,20.28t-3.12,20" transform="translate(-431.74 -133.96)"/><path class="cls-1" d="M666.53,191.38a127.24,127.24,0,0,1,52.38,72.52" transform="translate(-431.74 -133.96)"/><path class="cls-1" d="M679.79,178.33a147.27,147.27,0,0,0-37.9-19.15" transform="translate(-431.74 -133.96)"/><path class="cls-1" d="M666.53,191.38" transform="translate(-431.74 -133.96)"/><path class="cls-1" d="M698.82,222.22" transform="translate(-431.74 -133.96)"/><path class="cls-1" d="M718.91,263.9" transform="translate(-431.74 -133.96)"/><path class="cls-1" d="M701.31,268.73A275.77,275.77,0,0,1,709.44,311a271,271,0,0,1,1.44,42" transform="translate(-431.74 -133.96)"/><path class="cls-1" d="M631.5,175.05a128.61,128.61,0,0,1,35,16.33" transform="translate(-431.74 -133.96)"/><path class="cls-1" d="M641.89,159.18a145.47,145.47,0,0,0-32.46-6.87" transform="translate(-431.74 -133.96)"/><path class="cls-1" d="M653.3,204.58A109.65,109.65,0,0,1,683,231.5,108.24,108.24,0,0,1,693.78,249a110,110,0,0,1,7.53,19.77" transform="translate(-431.74 -133.96)"/><path class="cls-1" d="M631.5,175.05" transform="translate(-431.74 -133.96)"/><path class="cls-1" d="M649.65,181.9" transform="translate(-431.74 -133.96)"/><path class="cls-1" d="M666.53,191.38" transform="translate(-431.74 -133.96)"/><path class="cls-1" d="M601.69,170.06a126.83,126.83,0,0,1,15.12,1.62,128.15,128.15,0,0,1,14.69,3.37" transform="translate(-431.74 -133.96)"/><path class="cls-1" d="M609.43,152.31q-7-.66-14.11-.64a142.91,142.91,0,0,0-14.28.75" transform="translate(-431.74 -133.96)"/><path class="cls-1" d="M681.72,415.74q2.31-7.56,4.16-15.27t3.21-15.55" transform="translate(-431.74 -133.96)"/><path class="cls-1" d="M666,404.43c-1.22,4.37-2.56,8.71-4,13s-3,8.53-4.74,12.72" transform="translate(-431.74 -133.96)"/><path class="cls-1" d="M692.77,348.4" transform="translate(-431.74 -133.96)"/><path class="cls-1" d="M689.09,384.92q1.57-9,2.5-18.13" transform="translate(-431.74 -133.96)"/><path class="cls-1" d="M672,376.3q-1.08,7.14-2.58,14.18T666,404.43" transform="translate(-431.74 -133.96)"/><path class="cls-1" d="M601.69,170.06" transform="translate(-431.74 -133.96)"/><path class="cls-1" d="M631.5,175.05" transform="translate(-431.74 -133.96)"/><path class="cls-1" d="M621.2,191.19a110,110,0,0,1,32.1,13.39" transform="translate(-431.74 -133.96)"/><path class="cls-1" d="M692.77,348.4a255.3,255.3,0,0,0-9.07-74.84" transform="translate(-431.74 -133.96)"/><path class="cls-1" d="M674.61,343.54q-.08,8.29-.74,16.48T672,376.3" transform="translate(-431.74 -133.96)"/><path class="cls-1" d="M683.7,273.56A90.87,90.87,0,0,0,640.16,218" transform="translate(-431.74 -133.96)"/><path class="cls-1" d="M666.1,278.39a237.89,237.89,0,0,1,6.57,32.68,235.47,235.47,0,0,1,1.94,32.47" transform="translate(-431.74 -133.96)"/><path class="cls-1" d="M581,152.42q-6,.6-12,1.72c-4,.75-8,1.66-12,2.76l-.16,0-.16.05" transform="translate(-431.74 -133.96)"/><path class="cls-1" d="M666,404.43" transform="translate(-431.74 -133.96)"/><path class="cls-1" d="M662,417.42" transform="translate(-431.74 -133.96)"/><path class="cls-1" d="M657.26,430.14" transform="translate(-431.74 -133.96)"/><path class="cls-1" d="M643.66,416.14q-2.1,5.76-4.51,11.38T634,438.62" transform="translate(-431.74 -133.96)"/><path class="cls-1" d="M594.77,188.18a108.12,108.12,0,0,1,13.38.71,109.57,109.57,0,0,1,13.05,2.3" transform="translate(-431.74 -133.96)"/><path class="cls-1" d="M576.49,171.39" transform="translate(-431.74 -133.96)"/><path class="cls-1" d="M601.69,170.06q-6.24-.28-12.55,0" transform="translate(-431.74 -133.96)"/><path class="cls-1" d="M626.42,211.78a90.5,90.5,0,0,0-14.66-3.92" transform="translate(-431.74 -133.96)"/><path class="cls-1" d="M640.16,218" transform="translate(-431.74 -133.96)"/><path class="cls-1" d="M666.1,278.39" transform="translate(-431.74 -133.96)"/><path class="cls-1" d="M627.93,232.21a73.21,73.21,0,0,1,23.71,18.57" transform="translate(-431.74 -133.96)"/><path class="cls-1" d="M627.93,232.21" transform="translate(-431.74 -133.96)"/><path class="cls-1" d="M651.64,250.78" transform="translate(-431.74 -133.96)"/><path class="cls-1" d="M666.1,278.39" transform="translate(-431.74 -133.96)"/><path class="cls-1" d="M649,283.09a220.59,220.59,0,0,1,5.68,27.31,217.91,217.91,0,0,1,2.17,27.19" transform="translate(-431.74 -133.96)"/><path class="cls-1" d="M553.28,177.19q2.1-.74,4.26-1.41c1.43-.45,2.88-.88,4.34-1.28,2.43-.67,4.87-1.26,7.3-1.77" transform="translate(-431.74 -133.96)"/><path class="cls-1" d="M556.73,157q-5.9,1.63-11.53,3.71t-11,4.56" transform="translate(-431.74 -133.96)"/><path class="cls-1" d="M628.69,402.14q-1.7,5.33-3.69,10.55c-1.32,3.48-2.75,6.92-4.26,10.32" transform="translate(-431.74 -133.96)"/><path class="cls-1" d="M643.66,416.14q2.12-5.82,3.9-11.76t3.25-12" transform="translate(-431.74 -133.96)"/><path class="cls-1" d="M570.77,191.08a109.12,109.12,0,0,1,24-2.9" transform="translate(-431.74 -133.96)"/><path class="cls-1" d="M634.31,380.42q-1.09,5.52-2.51,10.95t-3.11,10.77" transform="translate(-431.74 -133.96)"/><path class="cls-1" d="M653.47,379.68q1.14-6.4,1.91-12.9" transform="translate(-431.74 -133.96)"/><path class="cls-1" d="M650.81,392.38" transform="translate(-431.74 -133.96)"/><path class="cls-1" d="M637.53,357.57q-.46,5.78-1.28,11.5t-1.94,11.35" transform="translate(-431.74 -133.96)"/><path class="cls-1" d="M655.38,366.78c.56-4.8,1-9.65,1.22-14.51s.33-9.77.25-14.68" transform="translate(-431.74 -133.96)"/><path class="cls-1" d="M601.12,224.89a72.65,72.65,0,0,1,13.82,2.39,73.46,73.46,0,0,1,13,4.93" transform="translate(-431.74 -133.96)"/><path class="cls-1" d="M611.76,207.86a90.91,90.91,0,0,0-25.07-1" transform="translate(-431.74 -133.96)"/><path class="cls-1" d="M638,332.47q.27,6.33.16,12.6t-.63,12.5" transform="translate(-431.74 -133.96)"/><path class="cls-1" d="M635.77,310.28A202.13,202.13,0,0,1,638,332.47" transform="translate(-431.74 -133.96)"/><path class="cls-1" d="M631,288" transform="translate(-431.74 -133.96)"/><path class="cls-1" d="M649,283.09a53.44,53.44,0,0,0-13-22.94,55.38,55.38,0,0,0-21.67-13.91" transform="translate(-431.74 -133.96)"/><path class="cls-1" d="M610.42,443q2.85-4.86,5.44-9.86c1.72-3.33,3.35-6.72,4.88-10.14" transform="translate(-431.74 -133.96)"/><path class="cls-1" d="M599.18,425.46q-2.45,4.68-5.14,9.22t-5.66,8.91" transform="translate(-431.74 -133.96)"/><path class="cls-1" d="M533.49,186.09q4.68-2.61,9.63-4.84t10.16-4.06" transform="translate(-431.74 -133.96)"/><path class="cls-1" d="M534.2,165.26q-5.07,2.34-9.88,5T515,176" transform="translate(-431.74 -133.96)"/><path class="cls-1" d="M550.44,198c2.59-1.17,5.25-2.25,8-3.23s5.48-1.86,8.31-2.64l2-.53,2-.49" transform="translate(-431.74 -133.96)"/><path class="cls-1" d="M533.49,186.09" transform="translate(-431.74 -133.96)"/><path class="cls-1" d="M543.12,181.25" transform="translate(-431.74 -133.96)"/><path class="cls-1" d="M553.28,177.19" transform="translate(-431.74 -133.96)"/><path class="cls-1" d="M634.31,380.42" transform="translate(-431.74 -133.96)"/><path class="cls-1" d="M631.8,391.37" transform="translate(-431.74 -133.96)"/><path class="cls-1" d="M628.69,402.14" transform="translate(-431.74 -133.96)"/><path class="cls-1" d="M614,387.13q-1.29,5-2.87,9.83t-3.4,9.62" transform="translate(-431.74 -133.96)"/><path class="cls-1" d="M586.69,206.89q-3.78.38-7.57,1.08t-7.58,1.74c-1,.26-1.95.55-2.91.85s-1.92.62-2.87.94" transform="translate(-431.74 -133.96)"/><path class="cls-1" d="M579.36,226.56a72.31,72.31,0,0,1,21.76-1.67" transform="translate(-431.74 -133.96)"/><path class="cls-1" d="M638,332.47" transform="translate(-431.74 -133.96)"/><path class="cls-1" d="M638.16,345.07" transform="translate(-431.74 -133.96)"/><path class="cls-1" d="M637.53,357.57" transform="translate(-431.74 -133.96)"/><path class="cls-1" d="M591.28,243.14a54,54,0,0,1,11.8.32" transform="translate(-431.74 -133.96)"/><path class="cls-1" d="M579.36,226.56" transform="translate(-431.74 -133.96)"/><path class="cls-1" d="M601.12,224.89" transform="translate(-431.74 -133.96)"/><path class="cls-1" d="M613.3,292.88q2.25,8.21,3.7,16.41t2.17,16.38" transform="translate(-431.74 -133.96)"/><path class="cls-1" d="M630.9,288.05a36.33,36.33,0,0,0-11-17.66,36.77,36.77,0,0,0-18.29-8.7" transform="translate(-431.74 -133.96)"/><path class="cls-1" d="M516.84,197.14q3.9-3.06,8.07-5.83c2.78-1.84,5.64-3.59,8.58-5.22" transform="translate(-431.74 -133.96)"/><path class="cls-1" d="M515,176q-4.31,2.87-8.37,6t-7.87,6.52" transform="translate(-431.74 -133.96)"/><path class="cls-1" d="M579.22,424.45q-2.54,4.33-5.33,8.5T568,441.12" transform="translate(-431.74 -133.96)"/><path class="cls-1" d="M599.18,425.46" transform="translate(-431.74 -133.96)"/><path class="cls-1" d="M594,434.68" transform="translate(-431.74 -133.96)"/><path class="cls-1" d="M588.38,443.59" transform="translate(-431.74 -133.96)"/><path class="cls-1" d="M524.91,191.31q-4.17,2.76-8.07,5.83" transform="translate(-431.74 -133.96)"/><path class="cls-1" d="M533.49,186.09" transform="translate(-431.74 -133.96)"/><path class="cls-1" d="M533.4,207.62q4-2.76,8.25-5.18c2.84-1.61,5.78-3.1,8.79-4.47" transform="translate(-431.74 -133.96)"/><path class="cls-1" d="M599.18,425.46q2.39-4.59,4.52-9.31t4-9.57" transform="translate(-431.74 -133.96)"/><path class="cls-1" d="M588.12,407q-2,4.5-4.19,8.87c-1.49,2.91-3,5.77-4.71,8.59" transform="translate(-431.74 -133.96)"/><path class="cls-1" d="M565.76,211.5a93,93,0,0,0-9,3.67,89.68,89.68,0,0,0-8.44,4.53" transform="translate(-431.74 -133.96)"/><path class="cls-1" d="M577.87,226.92c.49-.13,1-.25,1.49-.36" transform="translate(-431.74 -133.96)"/><path class="cls-1" d="M615,368.12" transform="translate(-431.74 -133.96)"/><path class="cls-1" d="M614,387.13q1.27-4.89,2.28-9.87c.67-3.32,1.24-6.66,1.73-10" transform="translate(-431.74 -133.96)"/><path class="cls-1" d="M599.23,370.65c-.57,3.11-1.23,6.2-2,9.25s-1.58,6.1-2.5,9.1" transform="translate(-431.74 -133.96)"/><path class="cls-1" d="M572.91,247.92c1.32-.6,2.67-1.15,4.05-1.66s2.8-.95,4.24-1.35q2.52-.69,5-1.13c1.68-.29,3.36-.5,5-.64" transform="translate(-431.74 -133.96)"/><path class="cls-1" d="M579.36,226.56" transform="translate(-431.74 -133.96)"/><path class="cls-1" d="M601.51,352.16c-.2,3.12-.5,6.22-.88,9.3s-.85,6.15-1.4,9.19" transform="translate(-431.74 -133.96)"/><path class="cls-1" d="M619.76,346.9c.11-3.51.11-7,0-10.58s-.31-7.09-.61-10.65" transform="translate(-431.74 -133.96)"/><path class="cls-1" d="M610.19,350.52" transform="translate(-431.74 -133.96)"/><path class="cls-1" d="M601.7,333.73c.15,3.09.2,6.18.17,9.25s-.15,6.13-.36,9.18" transform="translate(-431.74 -133.96)"/><path class="cls-1" d="M605.36,332.92" transform="translate(-431.74 -133.96)"/><path class="cls-1" d="M601.61,261.69a36.44,36.44,0,0,0-15.58.82q-.91.25-1.8.54c-.59.2-1.17.41-1.75.63" transform="translate(-431.74 -133.96)"/><path class="cls-1" d="M590.18,280.32l.34-.11.34-.1a18.27,18.27,0,0,1,22.44,12.77" transform="translate(-431.74 -133.96)"/><path class="cls-1" d="M502.23,210.59c2.24-2.42,4.59-4.75,7-7s5-4.4,7.59-6.46" transform="translate(-431.74 -133.96)"/><path class="cls-1" d="M498.71,188.52c-2.55,2.27-5,4.63-7.41,7.07s-4.67,5-6.87,7.55" transform="translate(-431.74 -133.96)"/><path class="cls-1" d="M588.12,407" transform="translate(-431.74 -133.96)"/><path class="cls-1" d="M579.22,424.45" transform="translate(-431.74 -133.96)"/><path class="cls-1" d="M569,403.93q-2,4.26-4.32,8.36t-4.85,8.06" transform="translate(-431.74 -133.96)"/><path class="cls-1" d="M518.49,220q3.42-3.41,7.15-6.51t7.76-5.89" transform="translate(-431.74 -133.96)"/><path class="cls-1" d="M588.12,407q1.9-4.38,3.58-8.89t3.06-9.1" transform="translate(-431.74 -133.96)"/><path class="cls-1" d="M546.15,244.08a71.55,71.55,0,0,1,7.27-5.91" transform="translate(-431.74 -133.96)"/><path class="cls-1" d="M548.3,219.7a88.33,88.33,0,0,0-7.92,5.4,92.39,92.39,0,0,0-7.24,6.14" transform="translate(-431.74 -133.96)"/><path class="cls-1" d="M557.48,258.5a53.86,53.86,0,0,1,7.18-5.91,54.53,54.53,0,0,1,8.25-4.67" transform="translate(-431.74 -133.96)"/><path class="cls-1" d="M553.42,238.17a71.55,71.55,0,0,0-7.27,5.91" transform="translate(-431.74 -133.96)"/><path class="cls-1" d="M601.7,333.73q-.21-4.55-.67-9.11c-.32-3-.71-6.08-1.2-9.13" transform="translate(-431.74 -133.96)"/><path class="cls-1" d="M577.94,302.59a148.07,148.07,0,0,1,3.24,14.66,144,144,0,0,1,1.69,14.64" transform="translate(-431.74 -133.96)"/><path class="cls-1" d="M582.48,263.68a36.29,36.29,0,0,0-15.25,11.19" transform="translate(-431.74 -133.96)"/><path class="cls-1" d="M578.09,302.55a18.26,18.26,0,0,1,12.09-22.23" transform="translate(-431.74 -133.96)"/><path class="cls-1" d="M490.58,225.09q2.64-3.83,5.55-7.46t6.1-7" transform="translate(-431.74 -133.96)"/><path class="cls-1" d="M484.43,203.14q-3.1,3.66-6,7.51T473,218.52" transform="translate(-431.74 -133.96)"/><path class="cls-1" d="M542.38,413.82q-2.67,3.85-5.6,7.52t-6.15,7.09" transform="translate(-431.74 -133.96)"/><path class="cls-1" d="M548.29,435.84q3.13-3.69,6-7.56t5.49-7.93" transform="translate(-431.74 -133.96)"/><path class="cls-1" d="M551.7,398q-2,4.11-4.38,8.07t-4.94,7.74" transform="translate(-431.74 -133.96)"/><path class="cls-1" d="M559.79,420.35q2.55-4,4.85-8.06t4.32-8.36" transform="translate(-431.74 -133.96)"/><path class="cls-1" d="M490.58,225.09" transform="translate(-431.74 -133.96)"/><path class="cls-1" d="M502.23,210.59" transform="translate(-431.74 -133.96)"/><path class="cls-1" d="M512.28,226.74c2-2.32,4.05-4.56,6.21-6.72" transform="translate(-431.74 -133.96)"/><path class="cls-1" d="M558.64,381.12q-1.42,4.35-3.17,8.57T551.7,398" transform="translate(-431.74 -133.96)"/><path class="cls-1" d="M575.84,386.81" transform="translate(-431.74 -133.96)"/><path class="cls-1" d="M569,403.93" transform="translate(-431.74 -133.96)"/><path class="cls-1" d="M575.84,386.81q1.42-4.33,2.59-8.75t2-8.93" transform="translate(-431.74 -133.96)"/><path class="cls-1" d="M563.17,363.08q-.81,4.6-1.94,9.12t-2.59,8.92" transform="translate(-431.74 -133.96)"/><path class="cls-1" d="M533.14,231.24a90.36,90.36,0,0,0-6.29,6.55q-3,3.42-5.59,7.12" transform="translate(-431.74 -133.96)"/><path class="cls-1" d="M534.36,258.11a73.66,73.66,0,0,1,5.44-7.37,71.25,71.25,0,0,1,6.35-6.66" transform="translate(-431.74 -133.96)"/><path class="cls-1" d="M546.19,274.35a56.28,56.28,0,0,1,4.92-8.42,54.82,54.82,0,0,1,6.37-7.43" transform="translate(-431.74 -133.96)"/><path class="cls-1" d="M534.36,258.11" transform="translate(-431.74 -133.96)"/><path class="cls-1" d="M546.15,244.08" transform="translate(-431.74 -133.96)"/><path class="cls-1" d="M565.05,343.08c0,3.38-.24,6.74-.55,10.07s-.76,6.65-1.33,9.93" transform="translate(-431.74 -133.96)"/><path class="cls-1" d="M580.47,369.13c.58-3,1.07-6,1.47-9s.7-6.08.91-9.15" transform="translate(-431.74 -133.96)"/><path class="cls-1" d="M582.85,351q.31-4.72.33-9.49t-.31-9.57" transform="translate(-431.74 -133.96)"/><path class="cls-1" d="M577.94,302.59" transform="translate(-431.74 -133.96)"/><path class="cls-1" d="M581.18,317.25" transform="translate(-431.74 -133.96)"/><path class="cls-1" d="M582.87,331.89" transform="translate(-431.74 -133.96)"/><path class="cls-1" d="M567.23,274.87a36.42,36.42,0,0,0-6.74,32.51" transform="translate(-431.74 -133.96)"/><path class="cls-1" d="M481.26,240.91q2-4.12,4.37-8.08t4.95-7.74" transform="translate(-431.74 -133.96)"/><path class="cls-1" d="M473,218.52q-2.55,4-4.85,8.06t-4.32,8.36" transform="translate(-431.74 -133.96)"/><path class="cls-1" d="M481.26,240.91" transform="translate(-431.74 -133.96)"/><path class="cls-1" d="M490.58,225.09q-2.61,3.78-4.95,7.74" transform="translate(-431.74 -133.96)"/><path class="cls-1" d="M497.31,249.62q2-4.11,4.36-8" transform="translate(-431.74 -133.96)"/><path class="cls-1" d="M521.26,244.91a92.25,92.25,0,0,0-9.2,16.28" transform="translate(-431.74 -133.96)"/><path class="cls-1" d="M525.78,276.67a73.34,73.34,0,0,1,3.64-9.59,74.45,74.45,0,0,1,4.94-9" transform="translate(-431.74 -133.96)"/><path class="cls-1" d="M565.05,343.08a126.93,126.93,0,0,0-1-17.79,128.68,128.68,0,0,0-3.57-17.91" transform="translate(-431.74 -133.96)"/><path class="cls-1" d="M546.19,274.35a54.44,54.44,0,0,0-3.3,37.86" transform="translate(-431.74 -133.96)"/><path class="cls-1" d="M514.36,419q3.28-3.25,6.27-6.76t5.65-7.25" transform="translate(-431.74 -133.96)"/><path class="cls-1" d="M511.7,394q-2.64,3.72-5.64,7.17t-6.35,6.6" transform="translate(-431.74 -133.96)"/><path class="cls-1" d="M474.32,257.79q1.43-4.35,3.17-8.57t3.77-8.31" transform="translate(-431.74 -133.96)"/><path class="cls-1" d="M457,252.07" transform="translate(-431.74 -133.96)"/><path class="cls-1" d="M490.53,267.1c.88-3,1.89-6,3-8.9s2.39-5.78,3.76-8.58" transform="translate(-431.74 -133.96)"/><path class="cls-1" d="M474.32,257.79" transform="translate(-431.74 -133.96)"/><path class="cls-1" d="M481.26,240.91" transform="translate(-431.74 -133.96)"/><path class="cls-1" d="M526.28,405q2.67-3.72,5-7.65t4.36-8" transform="translate(-431.74 -133.96)"/><path class="cls-1" d="M520.9,377.72A92.25,92.25,0,0,1,511.7,394" transform="translate(-431.74 -133.96)"/><path class="cls-1" d="M535.65,389.3q2.05-4.21,3.75-8.59c1.13-2.91,2.14-5.88,3-8.89" transform="translate(-431.74 -133.96)"/><path class="cls-1" d="M527,357.85a89.15,89.15,0,0,1-2.5,10.13,92.37,92.37,0,0,1-3.61,9.74" transform="translate(-431.74 -133.96)"/><path class="cls-1" d="M525.29,317a72.66,72.66,0,0,1,.49-40.37" transform="translate(-431.74 -133.96)"/><path class="cls-1" d="M542.42,371.82c1-3.3,1.77-6.65,2.43-10S546,355,546.32,351.5" transform="translate(-431.74 -133.96)"/><path class="cls-1" d="M525.27,317a91.5,91.5,0,0,1,3.21,20.63A90.36,90.36,0,0,1,527,357.85" transform="translate(-431.74 -133.96)"/><path class="cls-1" d="M512.06,261.19a94.7,94.7,0,0,0-3.62,9.74,91.5,91.5,0,0,0-2.5,10.14" transform="translate(-431.74 -133.96)"/><path class="cls-1" d="M542.88,312.21" transform="translate(-431.74 -133.96)"/><path class="cls-1" d="M546.32,351.5a109.64,109.64,0,0,0,.09-19.52" transform="translate(-431.74 -133.96)"/><path class="cls-1" d="M525.29,317" transform="translate(-431.74 -133.96)"/><path class="cls-1" d="M522.68,296.46" transform="translate(-431.74 -133.96)"/><path class="cls-1" d="M525.78,276.67" transform="translate(-431.74 -133.96)"/><path class="cls-1" d="M469.79,275.83c.54-3.07,1.18-6.11,1.94-9.12s1.62-6,2.59-8.92" transform="translate(-431.74 -133.96)"/><path class="cls-1" d="M457,252.07c-1,2.89-1.82,5.81-2.59,8.75s-1.45,5.93-2,8.93" transform="translate(-431.74 -133.96)"/><path class="cls-1" d="M498.6,380.8a74.51,74.51,0,0,1-5.49,7.43,72.24,72.24,0,0,1-6.4,6.7" transform="translate(-431.74 -133.96)"/><path class="cls-1" d="M511.7,394" transform="translate(-431.74 -133.96)"/><path class="cls-1" d="M499.71,407.77" transform="translate(-431.74 -133.96)"/><path class="cls-1" d="M469.79,275.83" transform="translate(-431.74 -133.96)"/><path class="cls-1" d="M474.32,257.79" transform="translate(-431.74 -133.96)"/><path class="cls-1" d="M486.64,287.41q.5-5.21,1.47-10.28t2.42-10" transform="translate(-431.74 -133.96)"/><path class="cls-1" d="M520.9,377.72" transform="translate(-431.74 -133.96)"/><path class="cls-1" d="M516.71,386.1" transform="translate(-431.74 -133.96)"/><path class="cls-1" d="M511.7,394" transform="translate(-431.74 -133.96)"/><path class="cls-1" d="M507.18,362.24a72,72,0,0,1-3.65,9.59,73,73,0,0,1-4.93,9" transform="translate(-431.74 -133.96)"/><path class="cls-1" d="M505.94,281.07a90.82,90.82,0,0,0-1.46,20.17,92,92,0,0,0,3.2,20.63" transform="translate(-431.74 -133.96)"/><path class="cls-1" d="M525.27,317" transform="translate(-431.74 -133.96)"/><path class="cls-1" d="M528.48,337.67" transform="translate(-431.74 -133.96)"/><path class="cls-1" d="M527,357.85" transform="translate(-431.74 -133.96)"/><path class="cls-1" d="M467.91,295.83q.07-5.07.55-10.07c.31-3.34.76-6.65,1.33-9.93" transform="translate(-431.74 -133.96)"/><path class="cls-1" d="M452.35,269.75c-.58,3-1.08,6-1.47,9s-.7,6.09-.91,9.16" transform="translate(-431.74 -133.96)"/><path class="cls-1" d="M486.64,287.41a109.37,109.37,0,0,0,3.44,39.29" transform="translate(-431.74 -133.96)"/><path class="cls-1" d="M510.28,342.45a72.71,72.71,0,0,0-2.61-20.58" transform="translate(-431.74 -133.96)"/><path class="cls-1" d="M507.18,362.24" transform="translate(-431.74 -133.96)"/><path class="cls-1" d="M467.91,295.83" transform="translate(-431.74 -133.96)"/><path class="cls-1" d="M472.48,331.53a128.88,128.88,0,0,1-3.58-17.9" transform="translate(-431.74 -133.96)"/><path class="cls-1" d="M475.38,380.52a55,55,0,0,0,11.39-16" transform="translate(-431.74 -133.96)"/><path class="cls-1" d="M472.47,331.53a36.45,36.45,0,0,1-6.84,32.63" transform="translate(-431.74 -133.96)"/><path class="cls-1" d="M450,287.93q-.32,4.71-.33,9.48t.3,9.56" transform="translate(-431.74 -133.96)"/><path class="cls-1" d="M472.48,331.53" transform="translate(-431.74 -133.96)"/><path class="cls-1" d="M467.91,295.83" transform="translate(-431.74 -133.96)"/><path class="cls-1" d="M486.77,364.56a54.59,54.59,0,0,0,3.3-37.86" transform="translate(-431.74 -133.96)"/><path class="cls-1" d="M472.47,331.53" transform="translate(-431.74 -133.96)"/><path class="cls-1" d="M472.94,349" transform="translate(-431.74 -133.96)"/><path class="cls-1" d="M465.63,364.16" transform="translate(-431.74 -133.96)"/><path class="cls-1" d="M449.94,307a144.44,144.44,0,0,0,1.7,14.68,146.21,146.21,0,0,0,3.24,14.71" transform="translate(-431.74 -133.96)"/><path class="cls-1" d="M596,297.64c.81,3,1.54,5.95,2.18,8.92s1.2,5.95,1.67,8.93" transform="translate(-431.74 -133.96)"/><path class="cls-1" d="M590.86,280.11l-.34.1-.34.11" transform="translate(-431.74 -133.96)"/><path class="cls-1" d="M613.3,292.88" transform="translate(-431.74 -133.96)"/><path class="cls-1" d="M729,357.45a291.77,291.77,0,0,0-10-93.55" transform="translate(-431.74 -133.96)"/><path class="cls-1" d="M553.05,141.23a163.15,163.15,0,0,0-30.65,11.82,161.36,161.36,0,0,0-19.14,11.45q-4,2.76-7.72,5.73" transform="translate(-431.74 -133.96)"/><path class="cls-1" d="M582.7,136a162.39,162.39,0,0,0-29.65,5.27" transform="translate(-431.74 -133.96)"/><path class="cls-1" d="M749,243.89a161.68,161.68,0,0,0-72.79-87.21,162.55,162.55,0,0,0-58.92-19.87" transform="translate(-431.74 -133.96)"/><path class="cls-1" d="M756.81,319c.69-5.21,1.13-10.48,1.31-15.78a162.16,162.16,0,0,0-5.73-48.48" transform="translate(-431.74 -133.96)"/><path class="cls-1" d="M713,410a162.83,162.83,0,0,0,41.46-77.52" transform="translate(-431.74 -133.96)"/><path class="cls-1" d="M574.65,458.47a162.75,162.75,0,0,0,121.76-33.42q5.3-4.17,10.19-8.75" transform="translate(-431.74 -133.96)"/><path class="cls-1" d="M468.57,398.07a162.79,162.79,0,0,0,77.07,53.77q3.87,1.28,7.81,2.34" transform="translate(-431.74 -133.96)"/><path class="cls-1" d="M434.14,286.27a163.33,163.33,0,0,0,20.17,90.43" transform="translate(-431.74 -133.96)"/><path class="cls-1" d="M481.84,182.36c-1.73,1.72-8.92,9.55-10.75,11.76q-2.1,2.55-4.1,5.17a162.76,162.76,0,0,0-31.28,73.14" transform="translate(-431.74 -133.96)"/></svg>